<?xml version="1.0" standalone="no"?>
<!DOCTYPE svg PUBLIC "-//W3C//DTD SVG 20010904//EN"
 "http://www.w3.org/TR/2001/REC-SVG-20010904/DTD/svg10.dtd">
<svg version="1.0" xmlns="http://www.w3.org/2000/svg"
 width="1200.000000pt" height="900.000000pt" viewBox="0 0 1200.000000 900.000000"
 preserveAspectRatio="xMidYMid meet">
<metadata>
Created by potrace 1.16, written by Peter Selinger 2001-2019
</metadata>
<g transform="translate(0.000000,900.000000) scale(0.100000,-0.100000)"
fill="#000000" stroke="none">
<path d="M6843 6562 c-25 -12 -33 -24 -43 -61 -6 -25 -15 -59 -20 -76 -5 -16
-12 -49 -14 -72 -3 -22 -10 -52 -15 -65 -6 -12 -17 -54 -26 -93 -8 -38 -20
-86 -25 -105 -5 -19 -14 -63 -21 -98 -6 -34 -14 -60 -16 -58 -5 4 -4 184 1
351 2 44 0 85 -3 90 -3 6 -6 17 -6 25 0 19 -39 25 -74 10 -27 -11 -27 -13 -24
-83 3 -60 0 -76 -16 -97 l-20 -25 2 93 2 92 -30 0 c-36 -1 -74 -25 -52 -33 10
-4 14 -30 14 -104 0 -54 -1 -101 -4 -105 -2 -5 -7 -86 -10 -180 -3 -95 -9
-181 -14 -190 -6 -11 -5 -18 4 -21 9 -3 9 -9 1 -23 -6 -11 -10 -38 -9 -61 1
-24 -2 -43 -6 -43 -4 0 -7 -10 -7 -22 3 -50 -2 -99 -10 -94 -5 3 -8 -4 -8 -16
1 -12 -3 -23 -9 -24 -11 -4 -11 43 0 146 8 79 13 168 19 370 3 85 6 155 6 155
0 0 2 51 3 113 2 98 0 112 -14 112 -31 0 -38 -25 -39 -160 -1 -74 -3 -155 -5
-180 -2 -25 -6 -137 -9 -250 -6 -193 -9 -220 -56 -450 -27 -135 -51 -256 -54
-270 -3 -14 -23 -108 -46 -210 -22 -102 -40 -194 -39 -205 1 -11 -1 -27 -4
-35 -3 -8 -19 -82 -36 -165 -17 -82 -35 -163 -40 -180 -5 -16 -19 -79 -31
-140 -12 -60 -38 -175 -56 -255 -54 -225 -73 -314 -70 -317 4 -4 65 21 144 58
75 36 192 110 243 153 20 17 53 45 75 63 103 83 121 105 134 168 7 33 18 78
26 101 7 22 15 49 17 60 2 10 7 26 11 34 10 24 37 123 39 145 1 11 5 22 9 25
3 3 22 52 42 110 19 58 43 128 52 155 10 28 31 88 46 135 16 47 33 94 38 105
24 57 80 204 80 210 0 3 11 31 25 61 14 30 25 57 25 59 0 4 31 73 101 222 16
34 29 64 29 66 0 5 91 200 156 332 18 39 58 107 88 152 29 45 64 104 76 130
12 26 29 56 37 65 16 18 10 53 -11 61 -8 3 -17 -8 -25 -29 -7 -20 -17 -32 -23
-28 -6 4 -8 3 -5 -2 8 -13 -37 -90 -51 -87 -7 2 -9 -4 -5 -14 4 -11 3 -14 -5
-9 -7 4 -12 1 -12 -9 0 -9 -4 -13 -10 -10 -6 3 -7 -1 -4 -9 3 -9 3 -23 0 -31
-5 -14 -8 -14 -29 0 -13 8 -27 12 -30 8 -31 -30 42 103 75 139 15 17 26 34 23
38 -3 5 -1 11 4 15 5 3 17 19 25 36 15 30 15 30 -19 45 -40 16 -57 18 -35 4
13 -9 13 -12 -2 -21 -10 -5 -18 -17 -18 -25 0 -14 -54 -102 -84 -136 -8 -9
-12 -19 -9 -22 3 -2 0 -11 -6 -18 -41 -48 -51 -63 -51 -75 0 -7 -4 -13 -10
-13 -5 0 -10 -6 -10 -13 0 -18 -31 -80 -44 -89 -6 -4 -8 -8 -3 -8 7 0 -38 -79
-52 -90 -3 -3 -6 -12 -6 -20 0 -10 -8 -14 -25 -12 -22 2 -23 1 -8 -11 21 -17
6 -49 -20 -40 -14 6 -15 4 -4 -9 10 -12 10 -21 1 -42 -7 -14 -16 -26 -20 -26
-5 0 -6 -6 -3 -13 6 -17 -21 -41 -36 -32 -5 3 -10 2 -10 -4 0 -5 6 -12 13 -15
9 -3 7 -9 -5 -19 -10 -8 -18 -24 -18 -36 0 -12 -6 -24 -14 -27 -8 -3 -12 -12
-9 -20 3 -8 0 -14 -7 -14 -6 0 -9 -4 -5 -9 3 -5 1 -12 -5 -16 -15 -9 -12 8 9
73 28 82 67 163 75 155 4 -4 4 0 1 10 -4 9 0 23 9 32 9 9 16 24 16 34 0 22 23
71 33 71 5 0 6 4 3 9 -3 5 3 20 14 34 11 14 20 30 20 35 0 5 7 12 15 16 8 3
12 12 9 21 -3 8 -1 15 5 15 6 0 8 7 5 15 -4 8 -1 15 5 15 6 0 11 7 11 16 0 11
5 14 16 10 13 -5 14 -3 6 7 -12 15 -13 14 63 136 28 45 56 92 63 106 7 14 18
25 24 25 6 0 8 3 5 7 -4 3 0 18 9 31 16 24 15 26 -2 39 -22 16 -33 16 -60 0
-21 -12 -127 -134 -150 -173 -6 -11 10 67 36 171 26 105 45 195 43 202 -5 12
-41 28 -48 21 -2 -2 -7 -19 -10 -38 -3 -19 -10 -39 -15 -44 -5 -5 -6 -16 -3
-25 5 -14 4 -14 -12 1 -21 20 -28 60 -15 93 7 19 5 25 -10 30 -25 8 -40 -1
-40 -24 0 -10 -3 -21 -7 -25 -4 -4 -9 -19 -11 -33 -2 -15 -7 -34 -12 -43 -5
-8 -11 -36 -15 -60 -4 -25 -15 -76 -25 -114 -11 -37 -19 -71 -18 -75 2 -7 -19
-87 -29 -111 -3 -8 -5 -20 -4 -27 1 -6 -3 -14 -9 -18 -5 -3 -10 -19 -10 -34 0
-16 -9 -36 -22 -47 -20 -18 -21 -18 -15 -1 4 10 7 31 7 45 0 21 2 24 10 12 7
-11 10 -4 9 25 0 22 3 56 6 75 4 19 8 45 9 58 0 12 5 22 9 22 5 0 6 8 2 19 -8
26 11 103 29 116 13 10 12 12 -2 22 -13 8 -14 13 -6 24 7 8 20 48 30 89 11 44
27 82 38 91 20 16 20 16 0 26 -13 6 -29 5 -51 -5z m-287 -364 c-1 -17 -7 -33
-14 -36 -7 -2 -9 -8 -6 -14 4 -6 10 -5 15 3 6 10 9 5 9 -15 0 -20 -4 -27 -14
-23 -10 4 -13 1 -9 -9 3 -7 9 -14 13 -14 9 0 6 -73 -4 -89 -4 -6 -2 -19 4 -30
7 -13 7 -22 0 -26 -6 -3 -8 -26 -6 -51 2 -28 -1 -44 -8 -44 -8 0 -8 -3 0 -8
11 -8 14 -52 3 -52 -4 0 -3 -15 0 -32 4 -18 4 -55 -1 -81 -4 -27 -8 -72 -9
-100 -1 -29 -4 -56 -7 -61 -3 -5 -6 -30 -7 -55 -2 -25 -4 -46 -5 -46 -1 0 -4
-17 -6 -39 -3 -43 -8 -51 -23 -42 -10 6 -8 74 4 191 2 22 7 70 10 108 4 37 12
67 17 67 6 0 5 6 -2 15 -7 9 -10 28 -6 52 8 45 17 246 17 352 -1 56 4 79 16
93 21 23 21 23 19 -14z m670 -247 c-7 -9 -21 -30 -29 -47 -9 -17 -30 -46 -47
-64 -18 -19 -27 -36 -21 -38 8 -3 8 -9 0 -23 -5 -11 -15 -17 -20 -13 -6 3 -9
0 -8 -7 5 -23 -114 -249 -130 -249 -13 0 -46 29 -33 30 6 0 12 8 12 18 1 19
44 95 51 88 2 -2 5 7 6 21 0 14 5 28 10 32 5 3 20 27 33 54 13 26 27 47 32 47
4 0 7 3 6 8 -1 4 16 44 37 89 42 88 67 110 97 84 15 -13 15 -17 4 -30z m-270
-461 c0 -11 -4 -20 -9 -20 -4 0 -5 -5 -1 -12 4 -6 -1 -17 -11 -25 -11 -7 -16
-13 -13 -13 14 0 -25 -91 -43 -100 -10 -6 -16 -17 -13 -25 4 -8 -1 -18 -10
-21 -9 -3 -14 -10 -11 -14 6 -9 -41 -108 -63 -132 -8 -10 -12 -18 -8 -18 4 0
2 -9 -5 -21 -7 -15 -14 -18 -21 -11 -8 8 -6 16 5 27 9 8 14 22 11 29 -3 7 2
21 11 30 9 9 13 16 9 16 -3 0 0 7 7 17 8 9 12 18 11 20 -5 6 32 93 40 93 3 0
9 13 13 30 4 16 11 32 16 35 5 4 9 15 9 26 0 26 36 96 52 102 22 9 24 8 24
-13z"/>
<path d="M5212 4079 c3 -13 -108 -53 -123 -43 -5 3 -9 1 -9 -4 0 -13 -81 -53
-92 -46 -4 3 -8 0 -8 -7 0 -7 -3 -10 -6 -6 -4 3 -21 -5 -38 -18 -18 -13 -53
-34 -79 -45 -25 -11 -49 -25 -52 -30 -3 -5 -13 -6 -22 -3 -11 4 -14 2 -9 -5 6
-10 -59 -53 -74 -48 -3 0 -18 -8 -34 -20 -25 -18 -27 -23 -17 -42 17 -31 161
-133 188 -132 4 1 -3 7 -16 14 l-25 14 31 15 c17 9 34 13 38 9 3 -4 5 -2 3 4
-6 21 235 187 274 189 70 4 79 6 75 18 -5 13 -9 13 -47 2 -21 -7 -22 -6 -10 7
20 19 50 30 50 18 0 -6 5 -10 11 -10 5 0 7 6 3 13 -4 6 -3 9 1 4 5 -4 19 0 32
8 13 9 27 14 32 11 5 -3 17 4 27 15 17 19 17 20 -2 14 -10 -3 3 6 29 20 46 25
50 25 73 10 14 -9 22 -21 18 -26 -4 -7 -10 -7 -17 0 -6 6 -15 11 -21 11 -5 0
-1 -6 9 -14 11 -8 23 -12 27 -10 4 2 9 0 12 -5 3 -5 -7 -14 -23 -21 -16 -6
-32 -18 -35 -27 -3 -8 -10 -11 -16 -8 -5 3 -10 0 -10 -7 0 -17 -139 -134 -154
-130 -6 2 -8 0 -3 -4 9 -10 -22 -44 -40 -44 -8 0 -12 -4 -9 -9 8 -12 -50 -61
-72 -62 -10 0 -12 -3 -5 -6 8 -3 -2 -20 -28 -48 -36 -39 -44 -43 -66 -34 -14
5 -27 8 -29 6 -6 -6 139 -70 175 -78 20 -4 60 -12 90 -18 50 -10 187 -14 149
-4 -20 5 -23 18 -8 28 10 6 63 84 65 95 1 3 13 30 27 61 14 31 32 73 39 93 7
20 17 36 21 36 4 0 8 5 8 11 0 5 -4 8 -9 5 -5 -4 -7 3 -4 14 3 11 10 20 15 20
5 0 7 -4 4 -9 -4 -5 -1 -11 5 -13 9 -3 9 -10 0 -26 -12 -22 -11 -22 9 -10 14
9 19 20 15 34 -2 12 1 27 8 33 11 8 14 4 14 -22 0 -23 -8 -39 -29 -58 -19 -18
-25 -29 -18 -34 6 -4 17 1 24 11 8 10 20 15 30 11 13 -5 16 -23 15 -115 0 -72
-5 -118 -14 -136 l-14 -26 42 0 c38 1 120 27 89 29 -7 1 -10 6 -6 12 4 7 7 30
8 53 1 31 6 41 18 41 9 0 20 4 25 8 4 5 3 8 -2 6 -15 -3 -45 12 -45 23 0 5 5
6 10 3 39 -24 -1 85 -68 185 -30 46 -82 91 -95 83 -5 -3 -7 -1 -4 4 9 14 -38
60 -70 68 -14 3 -40 17 -57 30 -39 30 -135 68 -157 62 -9 -2 -24 0 -33 5 -11
6 -16 6 -14 -3z"/>
<path d="M6412 3792 c-112 -81 -188 -133 -217 -148 -16 -8 -44 -26 -62 -40
-17 -13 -34 -24 -36 -24 -3 0 -38 -15 -79 -33 -40 -19 -85 -39 -100 -45 -17
-7 -30 -22 -34 -39 -3 -15 -9 -39 -14 -53 -9 -26 -21 -79 -26 -115 -1 -11 -12
-49 -23 -84 -12 -35 -21 -79 -21 -98 0 -19 -4 -43 -10 -53 -5 -10 -12 -33 -14
-51 -3 -19 -10 -52 -16 -74 -22 -80 -22 -82 -5 -82 10 0 14 6 10 15 -5 13 -3
13 11 1 15 -12 14 -15 -13 -26 -25 -10 -31 -19 -36 -54 -4 -33 -2 -46 11 -55
16 -12 16 -13 0 -19 -9 -4 -14 -13 -12 -20 3 -7 0 -16 -7 -20 -9 -6 -10 -1 -7
19 10 49 -14 39 -83 -33 -38 -40 -69 -75 -69 -78 0 -2 -13 -18 -30 -35 -16
-16 -30 -33 -30 -38 0 -4 -27 -36 -60 -71 -33 -34 -60 -66 -60 -71 0 -11 -14
-10 -27 3 -8 8 -13 7 -18 -2 -5 -7 -4 -10 2 -6 6 4 14 0 17 -9 9 -23 8 -27
-10 -20 -8 3 -12 2 -9 -4 3 -6 0 -10 -8 -10 -10 0 -13 -7 -10 -20 3 -11 0 -20
-6 -20 -6 0 -11 -6 -11 -14 0 -21 -39 -46 -59 -38 -13 5 -14 3 -3 -10 10 -13
9 -22 -9 -52 -11 -20 -26 -33 -32 -29 -6 3 -7 1 -3 -6 4 -7 -5 -26 -21 -45
-15 -18 -35 -43 -43 -56 -32 -48 -52 -70 -60 -65 -4 3 -6 -5 -2 -17 4 -17 2
-20 -13 -15 -13 6 -16 3 -11 -8 3 -9 -1 -18 -9 -21 -8 -4 -15 -12 -15 -19 0
-6 -9 -20 -20 -30 -11 -10 -20 -13 -20 -7 0 15 -26 16 -35 2 -3 -6 1 -7 9 -4
20 8 33 -23 17 -39 -8 -8 -11 -6 -11 9 0 15 -2 16 -9 4 -6 -8 -7 -18 -5 -22 5
-8 -33 -78 -42 -78 -3 0 -2 5 1 10 3 6 -4 14 -17 19 -18 7 -25 5 -30 -11 -5
-11 -13 -16 -19 -12 -8 4 -9 3 -5 -5 4 -6 16 -9 27 -6 11 4 19 2 19 -5 0 -6
-5 -8 -12 -4 -8 5 -9 2 -5 -10 8 -21 -39 -99 -56 -93 -7 2 -12 13 -11 25 0 12
-3 19 -8 16 -5 -3 -7 -17 -6 -31 2 -15 -3 -28 -11 -31 -9 -3 -11 1 -6 18 6 19
4 21 -17 18 -19 -2 -23 -8 -22 -35 2 -38 1 -39 -20 -17 -9 8 -16 11 -16 5 0
-6 -7 -11 -15 -11 -13 0 -13 3 -3 20 7 11 19 18 26 15 7 -3 11 -1 8 4 -7 11
61 81 78 81 15 0 55 29 41 30 -6 0 -16 -5 -23 -12 -6 -6 -15 -8 -19 -4 -5 4 0
13 10 20 9 7 17 19 17 25 0 8 8 10 23 6 21 -6 21 -5 -2 8 -24 14 -24 14 15 19
22 3 42 0 47 -6 5 -8 10 -6 17 4 15 22 12 29 -9 23 -10 -3 -22 0 -25 6 -4 6
-2 11 3 11 6 0 11 8 11 19 0 10 11 26 24 36 13 10 22 24 19 32 -3 8 2 13 16
13 15 0 21 6 21 21 0 18 2 20 16 9 12 -11 18 -10 31 3 15 15 15 16 -5 10 -26
-6 -29 9 -6 31 18 18 39 22 28 4 -4 -7 -3 -8 5 -4 6 4 9 11 6 16 -7 11 36 102
52 113 7 4 20 24 28 45 35 79 129 267 136 270 5 2 5 10 2 18 -3 8 -2 14 3 13
5 -1 15 -1 23 0 11 1 11 4 0 18 -12 14 -12 16 1 11 16 -5 40 14 40 31 0 6 5
11 10 11 6 0 10 7 10 15 0 8 9 19 21 25 16 9 18 14 8 26 -9 11 -9 17 1 29 7 9
18 14 24 12 16 -5 38 44 31 70 -3 13 -1 23 5 23 5 0 10 -4 10 -10 0 -5 5 -10
11 -10 6 0 9 7 5 15 -3 8 2 19 11 24 14 8 15 13 5 35 -8 18 -8 27 0 32 6 4 8
3 4 -4 -3 -6 -1 -14 5 -18 16 -9 29 17 19 37 -7 13 -5 16 7 15 9 0 18 5 21 13
3 10 0 12 -11 8 -9 -3 -19 -1 -23 5 -4 6 -3 8 4 4 23 -14 21 14 -3 38 -14 14
-25 32 -25 41 0 9 -4 13 -10 10 -5 -3 -10 2 -10 11 0 14 3 15 12 6 16 -16 39
-15 32 1 -3 8 2 20 11 27 18 15 21 0 3 -18 -9 -9 -9 -12 1 -12 10 0 11 -3 2
-14 -8 -9 -8 -21 -1 -40 9 -25 30 -36 30 -16 0 6 -5 10 -11 10 -5 0 -7 5 -4
10 4 6 11 8 16 5 5 -4 10 -1 10 4 3 21 4 26 13 39 4 7 5 16 2 19 -3 3 1 15 9
25 7 11 11 27 8 34 -3 8 0 14 7 14 10 0 10 3 0 15 -7 9 -10 18 -6 22 3 3 6 1
6 -5 0 -28 20 -9 27 26 9 47 7 41 26 83 9 20 19 70 23 110 3 41 11 83 16 93
10 18 7 19 -43 13 -30 -4 -62 -7 -72 -7 -19 0 -58 -74 -63 -119 -2 -12 -11
-29 -20 -36 -10 -7 -15 -19 -11 -27 3 -9 1 -20 -5 -26 -11 -11 -20 -57 -22
-109 -1 -13 -4 -23 -8 -23 -3 0 -11 -13 -16 -29 -8 -22 -7 -31 1 -35 9 -3 9
-5 0 -5 -7 -1 -13 -6 -13 -12 0 -6 7 -9 15 -5 17 6 20 -9 4 -20 -6 -3 -15 0
-20 7 -7 11 -14 7 -33 -16 -13 -16 -22 -33 -20 -37 3 -4 -4 -13 -16 -20 -11
-7 -20 -19 -20 -26 0 -7 -11 -24 -25 -38 -29 -29 -32 -44 -9 -44 13 0 14 -3 5
-14 -8 -10 -9 -16 -1 -19 6 -3 5 -4 -2 -3 -7 2 -13 9 -13 16 0 7 -6 15 -14 18
-8 3 -12 -1 -9 -9 3 -8 -7 -19 -23 -26 -22 -9 -26 -16 -22 -34 4 -14 2 -20 -4
-16 -13 8 -65 -31 -58 -43 3 -4 -4 -10 -15 -13 -14 -3 -20 -14 -20 -31 0 -14
-5 -26 -11 -26 -6 0 -9 -7 -5 -15 3 -9 0 -15 -9 -15 -8 0 -15 -5 -15 -11 0 -5
-5 -7 -11 -3 -7 4 -9 0 -5 -14 5 -15 2 -20 -11 -18 -12 0 -18 -6 -18 -19 0
-11 6 -19 13 -17 8 1 11 -2 7 -8 -4 -6 -16 -8 -27 -4 -14 4 -18 2 -14 -5 4 -6
2 -11 -4 -11 -14 0 -56 -51 -52 -62 1 -5 -3 -8 -8 -8 -6 0 -20 -16 -32 -37
-12 -20 -24 -31 -26 -25 -2 7 -8 12 -13 12 -6 0 -5 -8 1 -20 9 -16 8 -22 -5
-26 -8 -3 -15 -10 -15 -15 0 -13 -37 -48 -44 -42 -3 4 -6 2 -6 -4 0 -5 3 -13
7 -17 4 -3 8 -16 10 -29 3 -17 1 -19 -9 -9 -9 9 -16 8 -30 -5 -10 -9 -18 -22
-18 -30 0 -7 -5 -13 -11 -13 -5 0 -8 -4 -4 -9 3 -5 1 -12 -5 -16 -9 -5 -15 14
-11 37 0 4 -6 5 -15 1 -13 -5 -13 -7 -2 -15 10 -7 10 -11 -4 -22 -10 -7 -18
-17 -18 -21 0 -4 6 -2 14 4 10 8 16 9 21 1 9 -14 -4 -32 -20 -26 -8 3 -11 -2
-8 -13 3 -11 -2 -21 -12 -25 -13 -4 -16 -2 -11 9 3 8 1 15 -4 15 -13 0 -13
-23 0 -38 6 -6 7 -10 3 -7 -3 3 -15 -9 -25 -26 -10 -17 -23 -27 -29 -23 -8 5
-10 -3 -7 -26 4 -26 2 -30 -6 -19 -6 8 -19 13 -30 11 -10 -2 -16 0 -13 5 4 5
-1 10 -9 10 -9 0 -13 -6 -9 -15 3 -9 1 -19 -6 -22 -6 -4 -12 -19 -12 -34 -2
-20 -6 -24 -19 -20 -14 4 -18 -1 -18 -23 0 -19 -3 -24 -9 -14 -6 10 -10 10
-16 1 -4 -6 -14 -9 -22 -6 -8 3 -12 2 -9 -2 3 -5 -4 -16 -15 -25 -18 -16 -19
-16 -19 3 0 11 -6 20 -12 20 -8 1 -6 6 5 14 9 7 17 19 17 25 0 7 -12 -1 -26
-16 -14 -15 -34 -27 -43 -26 -9 1 -11 0 -3 -3 6 -3 12 -13 13 -22 0 -12 3 -10
10 6 5 13 13 21 18 18 16 -11 19 -46 4 -61 -20 -20 -39 -19 -22 1 12 14 11 16
-6 12 -15 -2 -19 -10 -17 -31 2 -15 -1 -28 -7 -28 -6 -1 -17 -2 -23 -3 -23 -4
-28 5 -13 20 8 9 18 13 22 11 5 -3 9 5 9 17 1 16 -4 21 -21 21 -12 -1 -29 -8
-38 -16 -14 -13 -13 -17 4 -46 20 -32 20 -32 -1 -30 -12 1 -20 8 -20 20 0 16
-2 17 -15 3 -8 -8 -15 -17 -15 -21 0 -13 28 -34 35 -27 5 4 5 2 1 -5 -4 -7
-13 -10 -21 -7 -8 4 -17 0 -20 -8 -3 -8 -13 -15 -22 -15 -13 0 -13 2 -2 11 8
6 14 20 13 31 0 11 4 28 9 39 6 12 5 21 -2 25 -5 4 -8 17 -4 29 4 18 8 20 20
10 8 -6 5 5 -7 25 -21 36 -34 45 -43 30 -2 -5 -2 -2 -1 4 4 17 -21 16 -35 -1
-15 -18 -61 -18 -61 0 0 8 -4 14 -8 14 -4 0 -8 -9 -8 -20 0 -11 4 -20 9 -20 5
0 4 -7 -3 -15 -9 -10 -9 -15 -1 -15 6 0 10 -3 10 -7 -4 -22 2 -43 12 -43 6 0
8 9 4 20 -4 12 -2 20 5 20 8 0 10 9 6 24 -5 20 -3 23 14 19 11 -3 20 -10 20
-15 0 -5 4 -7 10 -3 5 3 6 13 3 23 -6 16 -6 16 11 0 9 -10 22 -18 27 -18 5 0
9 -4 9 -9 0 -5 -8 -7 -19 -4 -10 2 -24 -2 -32 -10 -8 -7 -19 -12 -25 -10 -6 2
-11 -10 -11 -29 0 -18 2 -27 5 -20 2 6 11 12 20 13 11 0 13 2 4 6 -9 3 -7 10
9 24 24 21 39 24 39 9 0 -5 -4 -10 -9 -10 -5 0 -19 -16 -31 -37 -17 -29 -18
-38 -8 -44 7 -5 16 -9 20 -9 3 0 6 -16 5 -35 -1 -34 -10 -45 -22 -25 -3 5 -12
7 -19 4 -7 -3 -16 2 -20 12 -5 13 -4 14 7 6 21 -17 28 -3 10 18 -16 18 -17 18
-35 -5 -12 -15 -25 -21 -38 -18 -11 3 -20 0 -20 -6 0 -11 -34 -10 -46 2 -14
14 -26 7 -14 -8 7 -9 18 -14 24 -12 11 4 56 -32 56 -45 0 -4 -4 -8 -10 -8 -5
0 -10 7 -10 15 0 20 -16 19 -24 -1 -8 -21 -8 -26 2 -21 4 3 8 -9 8 -26 1 -18
-1 -24 -3 -14 -2 9 -8 17 -13 17 -5 0 -15 3 -24 6 -9 3 -16 1 -16 -5 0 -6 6
-11 14 -11 8 0 17 -7 20 -16 8 -21 8 -24 -5 -24 -5 0 -8 3 -5 8 2 4 -7 13 -21
19 -20 10 -24 10 -19 -2 7 -20 -10 -28 -31 -15 -17 11 -17 11 0 6 12 -4 17 -2
14 6 -2 7 0 25 4 41 5 16 4 25 -2 22 -5 -4 -9 -2 -9 4 0 5 6 11 13 14 6 2 9 8
4 12 -13 14 -37 -28 -25 -43 8 -9 6 -16 -8 -26 -12 -9 -21 -11 -25 -4 -4 6
-13 1 -22 -12 -9 -13 -17 -17 -22 -11 -3 6 -1 11 6 11 8 0 7 6 -4 18 -11 12
-13 22 -6 35 8 13 7 17 -2 15 -26 -6 -19 31 11 63 17 19 38 45 45 59 20 38
135 145 135 127 0 -9 -8 -20 -17 -26 -15 -8 -16 -12 -5 -23 11 -11 16 -10 28
6 17 24 18 16 2 -19 -6 -14 -16 -25 -22 -25 -6 0 -4 -5 4 -10 12 -8 12 -10 1
-10 -8 0 -12 -3 -9 -6 4 -3 16 0 28 6 18 10 20 14 9 22 -11 7 -11 11 -1 15 15
6 16 39 1 48 -6 4 -8 13 -5 21 3 8 1 14 -4 14 -6 0 -10 7 -10 16 0 9 6 14 13
11 6 -2 17 3 23 11 9 12 15 12 33 3 21 -12 22 -11 19 19 -2 24 2 35 17 44 11
6 27 19 36 29 11 11 20 14 24 7 10 -15 19 -12 34 13 13 20 13 21 -1 9 -13 -10
-17 -10 -22 4 -9 24 -8 29 17 56 34 38 67 86 67 98 0 6 7 4 16 -5 18 -17 36
-16 40 3 1 7 0 8 -2 3 -7 -14 -34 -2 -34 15 0 8 6 17 14 20 8 3 12 13 9 25 -3
10 0 20 6 20 6 1 17 2 24 3 6 1 11 9 9 18 -1 9 6 18 18 21 12 3 18 11 15 19
-3 8 3 26 14 39 16 19 20 21 21 7 0 -9 -4 -20 -10 -23 -5 -3 -10 -15 -10 -25
0 -10 -7 -23 -16 -28 -9 -5 -14 -14 -10 -21 11 -17 29 -13 22 4 -3 9 1 18 9
22 10 3 13 12 10 24 -4 11 -2 19 6 19 8 0 9 10 5 31 -5 25 -1 36 16 50 11 11
27 19 35 19 7 0 13 5 13 10 0 6 -4 10 -10 10 -5 0 -10 7 -10 17 0 9 3 13 7 10
10 -11 43 24 43 45 0 10 3 17 8 16 7 -3 52 38 52 48 0 9 28 34 39 34 6 0 15 8
20 19 14 25 42 36 34 13 -5 -14 -3 -15 7 -5 11 10 11 15 0 28 -7 8 -8 15 -3
15 11 0 81 67 112 108 13 18 30 32 38 32 10 0 13 6 9 16 -4 12 -2 15 9 10 8
-3 15 -2 15 3 0 4 25 34 55 67 30 32 53 63 52 68 -2 4 10 22 25 38 15 16 24
36 21 44 -3 7 0 14 6 14 6 0 11 6 11 14 0 8 5 16 11 18 7 2 12 24 12 48 0 38
1 41 13 26 12 -16 14 -16 29 8 10 14 15 33 11 41 -3 9 -2 14 3 10 5 -3 20 9
32 27 13 18 28 36 34 40 5 4 6 8 1 8 -4 0 7 17 25 38 57 65 71 84 65 89 -8 9
-148 33 -157 27 -5 -3 -9 -1 -9 5 0 6 -6 8 -14 5 -8 -3 -36 4 -62 15 -64 29
-79 27 -98 -13 -9 -19 -25 -37 -35 -41 -9 -3 -18 -11 -18 -18 0 -17 -61 -105
-81 -116 -9 -5 -16 -13 -16 -18 3 -16 -8 -33 -17 -27 -5 3 -9 1 -9 -4 0 -19
14 -21 34 -5 15 14 18 14 8 2 -6 -9 -8 -20 -4 -24 4 -5 2 -5 -5 -2 -6 4 -14 1
-16 -5 -4 -10 -8 -9 -16 2 -10 13 -13 13 -25 -2 -7 -10 -16 -18 -21 -18 -4 0
-18 -9 -32 -20 -14 -11 -29 -18 -33 -15 -4 2 -5 -7 -2 -22 4 -21 2 -25 -11
-20 -11 4 -21 -1 -28 -16 -7 -12 -17 -25 -23 -29 -8 -5 -7 -8 2 -8 6 0 12 -4
12 -10 0 -5 -11 -10 -25 -10 -25 0 -125 -90 -125 -113 0 -6 -7 -2 -16 9 -15
19 -15 19 -9 -2 4 -16 -1 -28 -19 -42 -14 -10 -23 -21 -21 -24 3 -3 -4 -13
-14 -22 -18 -16 -21 -16 -43 -2 -17 11 -27 12 -38 5 -13 -9 -12 -10 3 -5 12 4
17 0 17 -12 0 -13 2 -14 9 -3 12 18 21 0 14 -27 -6 -23 -19 -27 -42 -13 -9 6
-22 6 -32 0 -28 -14 -33 7 -7 27 15 10 17 14 6 11 -19 -7 -35 8 -18 16 6 3 5
4 -2 3 -13 -3 -15 -63 -4 -92 6 -16 37 -14 60 5 9 7 16 9 16 3 0 -5 -7 -15
-15 -22 -8 -7 -15 -19 -15 -26 0 -8 -7 -14 -15 -14 -8 0 -12 -6 -9 -13 3 -8
-2 -20 -11 -27 -12 -10 -18 -10 -30 0 -20 16 -19 6 1 -14 14 -14 13 -18 -3
-35 -10 -11 -38 -47 -63 -80 -25 -33 -50 -60 -55 -61 -6 0 -16 -9 -23 -21 -8
-12 -19 -18 -28 -15 -12 4 -14 1 -9 -15 8 -24 -10 -49 -37 -49 -10 0 -17 -4
-14 -9 7 -11 -21 -48 -30 -39 -4 4 -2 14 4 21 7 8 9 17 5 20 -3 4 0 13 7 22
10 12 9 16 -4 21 -10 4 -15 13 -12 20 3 8 0 11 -10 7 -13 -5 -13 -8 1 -23 15
-17 15 -20 -1 -45 -19 -29 -27 -68 -12 -59 13 8 10 -4 -8 -31 -15 -23 -43 -37
-29 -15 3 6 2 10 -3 10 -17 0 -21 -13 -11 -31 6 -11 6 -19 0 -19 -9 0 -24 -44
-19 -56 2 -4 -7 -10 -19 -15 -15 -5 -21 -14 -17 -23 7 -17 -21 -51 -30 -37 -3
4 -2 11 1 15 4 4 8 16 10 28 3 18 1 19 -12 8 -9 -7 -13 -15 -11 -17 2 -3 -2
-23 -9 -44 -8 -22 -10 -37 -5 -34 6 3 10 2 10 -4 0 -15 -23 -26 -28 -13 -7 22
-22 13 -22 -13 0 -14 -5 -25 -12 -25 -6 0 -8 -3 -5 -6 4 -4 13 -1 22 6 22 18
19 4 -7 -30 -17 -24 -19 -32 -8 -45 15 -18 0 -21 -18 -3 -9 9 -12 9 -12 0 0
-10 -5 -10 -20 -2 -15 8 -20 8 -20 -3 0 -7 5 -18 10 -23 15 -15 -22 -46 -44
-38 -19 7 -22 26 -3 23 24 -3 37 1 37 12 0 6 -7 9 -15 5 -14 -5 -20 5 -16 27
1 5 -3 6 -9 2 -6 -3 -8 -10 -5 -15 12 -20 -15 -18 -29 2 -9 12 -16 18 -16 14
0 -5 7 -18 16 -27 9 -10 16 -30 17 -43 0 -14 3 -23 8 -20 5 3 9 -1 9 -8 0 -9
3 -9 10 2 8 13 10 13 10 -2 0 -22 -20 -34 -30 -18 -5 9 -9 9 -14 1 -4 -6 -2
-11 3 -11 6 0 11 -7 11 -16 0 -10 -6 -14 -14 -11 -9 4 -12 0 -9 -13 3 -10 -1
-21 -8 -25 -7 -5 -10 -4 -5 3 4 6 -1 10 -13 9 -22 -1 -35 -43 -17 -52 8 -3 7
-7 -2 -11 -6 -3 -9 -10 -6 -16 4 -6 1 -9 -7 -6 -8 3 -13 12 -11 21 2 11 -2 15
-13 11 -16 -7 -21 -24 -6 -24 5 0 11 -14 15 -31 4 -23 1 -38 -14 -56 -11 -14
-17 -29 -14 -34 3 -5 -1 -9 -9 -9 -22 0 -59 -44 -46 -57 8 -8 4 -15 -12 -27
-17 -12 -19 -16 -7 -16 24 0 42 -26 23 -34 -14 -5 -14 -8 1 -30 15 -25 34 -34
77 -42 12 -2 36 -6 52 -8 l30 -6 -27 12 c-28 12 -40 35 -14 25 10 -4 13 -1 10
7 -6 16 52 61 61 47 3 -6 13 -7 21 -4 14 5 14 3 3 -14 -7 -12 -9 -28 -4 -39 4
-11 7 -27 6 -36 -1 -11 4 -18 15 -18 13 0 14 3 4 15 -10 12 -9 15 6 15 18 1
18 1 1 14 -13 10 -15 21 -11 45 5 24 3 31 -10 31 -9 0 -16 5 -16 11 0 5 4 8 8
5 5 -3 19 6 30 19 12 14 27 25 34 25 6 0 3 -6 -7 -14 -29 -21 -30 -96 -2 -118
12 -10 16 -18 10 -18 -20 0 -15 -16 10 -29 12 -6 14 -9 5 -7 -12 4 -15 1 -11
-10 3 -9 -1 -14 -12 -14 -10 0 -13 5 -9 12 4 7 3 8 -4 4 -6 -4 -9 -13 -6 -20
7 -19 -56 -27 -192 -26 -60 1 -228 1 -374 0 -227 0 -266 -3 -273 -16 -8 -13
-11 -13 -30 -1 -36 23 -279 6 -255 -19 13 -12 72 -16 333 -22 374 -9 4108 -8
4122 1 7 4 14 3 17 -2 7 -11 714 -8 739 3 9 5 23 4 30 -2 8 -7 207 -10 596 -8
573 2 584 2 602 -18 l19 -20 0 22 c0 17 6 21 33 20 17 -1 100 0 183 0 150 2
194 11 176 38 -10 16 -309 26 -316 10 -3 -7 -5 -7 -5 2 -1 9 -98 12 -453 11
-249 -1 -515 -4 -591 -8 -76 -3 -149 -3 -162 0 -13 4 -26 4 -30 1 -8 -9 -119
-2 -129 8 -9 9 39 35 57 32 4 -1 7 3 7 9 0 5 4 8 9 5 14 -9 41 4 41 20 0 13
12 18 33 15 4 0 7 4 7 10 0 5 5 7 10 4 6 -3 10 -1 10 5 0 6 5 8 12 4 8 -5 9
-2 5 9 -5 14 0 17 26 17 24 0 28 3 17 10 -12 7 -11 10 5 16 19 7 31 17 78 59
14 13 28 20 31 17 3 -3 6 1 6 9 0 8 8 22 18 31 40 40 51 55 68 98 9 25 22 51
27 58 5 7 7 15 4 19 -4 3 0 11 8 17 9 6 17 27 19 46 2 19 7 43 11 53 4 10 5
20 2 24 -3 3 0 11 7 19 20 19 19 231 0 314 -9 36 -17 73 -19 82 -5 23 -35 68
-47 68 -7 0 -50 80 -53 100 -6 37 -137 182 -197 218 -16 9 -28 19 -28 22 0 3
12 13 28 22 107 64 302 278 302 331 0 19 -5 19 -79 14 -145 -11 -310 -109
-436 -259 -23 -27 -29 -29 -53 -20 -15 6 -51 14 -79 17 -51 7 -53 6 -54 -17
l0 -23 -9 22 c-7 18 -15 22 -37 18 -15 -2 -63 -6 -105 -9 l-76 -6 -144 -111
c-347 -269 -377 -294 -397 -334 -27 -54 -55 -160 -48 -185 3 -11 1 -20 -4 -20
-5 0 -9 -15 -8 -32 0 -18 0 -68 0 -111 -2 -105 47 -269 77 -259 16 5 16 -20 0
-36 -9 -9 -8 -12 5 -12 10 0 17 -8 17 -20 0 -11 5 -20 10 -20 6 0 10 -7 10
-15 0 -9 7 -18 15 -21 8 -4 15 -13 15 -21 0 -9 6 -13 13 -10 10 4 13 -2 9 -18
-5 -28 43 -84 130 -152 46 -35 153 -94 178 -98 3 -1 15 -4 28 -9 37 -12 25
-26 -25 -27 -48 -2 -146 0 -160 2 -34 6 -123 -3 -118 -11 3 -6 -1 -10 -10 -10
-9 0 -14 4 -10 9 3 5 1 12 -5 16 -5 3 -10 2 -10 -4 0 -6 -7 -7 -17 -4 -11 4
-14 3 -9 -5 4 -7 -7 -6 -29 3 -32 14 -35 14 -35 -2 0 -10 -4 -14 -8 -8 -4 6
-14 10 -22 10 -8 0 -18 -4 -22 -10 -5 -6 -8 -6 -8 1 0 19 -70 25 -101 8 -22
-11 -27 -11 -23 -1 3 9 -4 12 -23 11 -15 -1 -50 -2 -76 -3 -29 0 -46 -5 -42
-11 3 -5 -1 -10 -10 -10 -9 0 -13 5 -10 10 4 6 -16 10 -52 10 -41 0 -54 -3
-43 -10 9 -6 10 -10 3 -10 -6 0 -15 5 -18 10 -3 6 -31 10 -61 10 -30 0 -53 -4
-50 -8 2 -4 -7 -8 -22 -9 -22 -1 -23 0 -8 6 11 4 15 10 10 13 -13 8 -74 -3
-74 -13 0 -5 -11 -9 -25 -9 -14 0 -25 5 -25 10 0 6 -7 10 -16 10 -8 0 -12 -4
-9 -10 3 -5 -3 -10 -15 -10 -12 0 -19 4 -16 8 2 4 -7 8 -22 9 -24 2 -24 1 -7
-7 18 -8 17 -9 -8 -9 -38 -1 -71 17 -59 32 5 7 13 32 17 57 4 25 9 57 11 72 3
15 13 76 24 135 17 99 17 109 2 126 -13 14 -13 17 -1 12 16 -6 39 54 45 118 2
21 9 47 14 57 6 10 10 30 10 44 0 15 4 34 9 44 12 23 53 228 55 274 0 20 4 34
7 32 4 -2 10 18 14 44 3 26 9 56 11 67 3 11 8 44 11 74 l6 53 59 -6 c52 -6 64
-4 92 15 62 42 108 141 107 232 0 32 -3 67 -7 79 -4 15 -3 19 7 14 8 -4 5 0
-6 9 -14 12 -16 19 -7 22 15 6 16 49 1 59 -8 4 -7 9 2 14 10 7 10 12 1 23 -7
7 -9 17 -6 20 3 3 2 12 -2 19 -4 7 -9 19 -9 28 -1 8 -5 29 -9 46 -5 24 -3 33
8 37 9 4 16 14 16 24 0 15 -2 15 -15 -3 -19 -24 -30 -9 -40 53 -3 23 -10 43
-15 43 -10 0 -5 40 17 145 8 39 19 99 24 135 6 36 14 74 20 85 5 11 11 35 12
52 1 18 5 33 10 33 4 0 7 10 7 21 0 22 10 63 36 153 8 27 13 51 11 52 -2 2
-26 -13 -55 -34z m-974 -1492 c4 0 8 -21 10 -46 2 -47 16 -83 36 -96 8 -6 8
-10 0 -15 -9 -6 -6 -21 11 -52 l22 -45 -29 -105 c-16 -58 -34 -130 -40 -158
-6 -29 -14 -53 -18 -53 -4 0 -10 37 -14 82 -10 118 -52 292 -86 359 -5 10 -1
24 11 40 10 13 19 28 19 33 0 4 15 31 33 59 30 47 32 48 35 23 2 -14 6 -26 10
-26z m-268 -371 c-6 -11 -10 -25 -7 -32 2 -6 -2 -18 -10 -25 -17 -18 -16 -62
2 -86 8 -11 15 -30 15 -42 0 -13 4 -25 9 -28 5 -3 12 -17 15 -32 7 -28 13 -36
64 -91 30 -32 36 -35 82 -31 28 1 50 3 50 2 0 0 -7 -25 -16 -55 -9 -30 -18
-92 -21 -139 -2 -47 -5 -96 -7 -110 -1 -14 -4 -31 -4 -37 -2 -9 -26 -13 -87
-13 -71 0 -86 -3 -94 -18 -8 -15 -23 -18 -109 -17 -72 0 -105 5 -118 15 -17
14 -18 14 -5 -2 12 -16 9 -18 -38 -15 -49 2 -64 10 -38 20 6 3 -2 6 -20 6 -20
1 -36 -5 -43 -16 -8 -12 -13 -14 -16 -6 -3 7 -12 9 -20 6 -9 -3 -12 0 -9 8 4
11 -12 14 -75 15 -65 1 -78 -1 -69 -12 7 -8 18 -10 32 -5 23 9 47 4 47 -8 0
-12 -63 -11 -77 1 -8 7 -18 7 -25 1 -7 -5 -23 -8 -35 -7 -13 1 -32 2 -43 3
-11 0 -20 8 -20 16 0 11 -13 14 -54 14 -43 -1 -53 -4 -49 -15 3 -8 -1 -14 -8
-15 -8 -1 -26 -2 -41 -3 -19 -2 -28 2 -28 12 0 11 3 12 13 3 8 -6 17 -8 20 -5
12 12 -4 24 -29 24 -16 0 -24 5 -21 13 2 6 10 11 16 10 6 -2 11 2 11 7 0 6 -7
10 -15 10 -9 0 -15 9 -15 22 0 27 -8 20 -13 -11 -4 -29 -23 -41 -67 -41 -23 0
-30 3 -21 9 18 12 0 21 -27 14 -19 -5 -21 -8 -10 -22 12 -14 11 -14 -4 -2 -24
18 -23 31 2 31 12 0 20 7 20 17 0 14 2 14 20 -2 15 -13 20 -14 20 -5 0 11 3
11 12 2 17 -17 41 -15 35 2 -3 8 3 22 14 32 18 17 20 17 34 -2 12 -16 14 -16
15 -3 0 9 -7 22 -15 29 -14 12 -14 15 1 31 22 24 29 24 40 -2 9 -20 10 -20 37
7 20 19 27 22 27 11 0 -9 -9 -19 -20 -22 -11 -3 -20 -10 -20 -15 0 -5 -3 -17
-6 -27 -4 -10 7 -2 24 17 17 19 34 43 37 53 4 9 15 17 26 17 23 0 25 -15 4
-24 -8 -3 -15 -16 -15 -28 0 -16 -3 -19 -9 -10 -6 10 -12 7 -24 -11 -15 -23
-15 -25 3 -30 13 -3 17 -1 13 9 -7 20 14 18 25 -2 7 -13 11 -14 17 -4 4 7 2
16 -5 20 -9 6 -9 9 0 15 9 6 9 9 -1 16 -18 11 -6 21 14 13 12 -4 15 -13 11
-31 -5 -19 -3 -24 7 -21 8 3 13 14 12 24 -1 12 7 24 20 29 29 13 34 41 7 41
-11 0 -20 -4 -20 -8 0 -4 5 -8 11 -8 5 0 7 -4 4 -10 -10 -16 -22 -12 -28 10
-3 11 -9 20 -14 19 -19 -3 -33 2 -33 12 0 6 7 8 16 5 8 -3 13 -2 10 3 -3 4 6
18 19 29 30 26 32 26 32 7 0 -8 -9 -15 -19 -15 -11 0 -18 -5 -15 -12 2 -7 17
-12 35 -11 36 2 50 -23 32 -57 -13 -25 1 -26 24 -1 15 16 15 19 1 31 -9 7 -13
20 -10 27 2 8 0 23 -5 34 -7 13 -8 25 -1 37 8 13 10 14 11 2 0 -17 49 38 50
57 0 14 56 9 75 -7 10 -8 19 -8 35 0 37 20 42 6 9 -25 -18 -17 -29 -24 -25
-17 4 6 2 12 -4 12 -7 0 -9 -7 -6 -16 6 -16 -8 -36 -34 -47 -8 -4 -1 -5 15 -1
17 3 44 19 60 35 17 16 34 29 39 29 10 0 143 133 200 200 26 30 52 62 59 70 7
8 39 50 71 93 59 77 76 95 56 56z m-1350 -460 c-13 -8 -13 -11 3 -20 9 -6 15
-14 12 -20 -8 -12 2 -11 27 2 15 8 23 8 32 -1 8 -9 7 -11 -4 -10 -36 5 -43 1
-29 -17 11 -13 11 -17 2 -20 -20 -7 -15 -19 6 -19 10 0 17 5 14 12 -2 6 3 17
12 24 13 10 15 9 16 -6 0 -16 1 -16 9 3 10 24 48 49 58 38 4 -4 -1 -11 -11
-16 -9 -6 -15 -14 -12 -20 4 -5 2 -9 -2 -9 -5 0 -25 -15 -44 -32 -55 -51 -130
-87 -114 -55 4 6 -3 -1 -15 -16 -22 -28 -23 -28 -37 -7 -8 11 -11 25 -8 30 3
6 0 10 -8 10 -16 0 -32 43 -17 48 5 2 6 10 3 18 -3 8 -2 22 2 32 6 15 8 15 18
2 7 -8 21 -17 32 -19 19 -3 19 -2 1 17 -18 21 -14 46 7 39 6 -2 20 5 31 15 11
10 22 15 25 12 3 -3 -1 -9 -9 -15z"/>
<path d="M4582 3726 c-7 -6 -24 -21 -36 -33 -13 -13 -27 -23 -32 -23 -5 0 -16
-9 -24 -20 -8 -11 -18 -20 -23 -20 -5 0 -18 -11 -29 -25 -11 -14 -26 -25 -34
-25 -8 0 -14 -4 -14 -9 0 -5 -8 -12 -17 -15 -10 -3 -29 -16 -43 -28 -14 -13
-46 -34 -72 -47 -26 -13 -57 -34 -69 -47 -12 -13 -27 -24 -33 -24 -18 -1 -69
-58 -61 -69 3 -7 0 -8 -10 -5 -9 4 -27 -6 -47 -25 -17 -17 -38 -31 -45 -31 -8
0 -12 -4 -9 -8 2 -4 1 -14 -5 -22 -7 -13 -9 -12 -9 1 0 9 -7 22 -15 29 -10 9
-15 9 -15 1 0 -6 5 -11 10 -11 12 0 13 -37 1 -44 -5 -3 -8 2 -7 11 0 9 -6 18
-14 20 -9 3 -11 1 -5 -4 14 -10 17 -51 4 -58 -5 -4 -9 -1 -9 4 0 6 -5 11 -11
11 -6 0 -8 -8 -4 -19 3 -12 0 -21 -10 -25 -9 -3 -15 0 -15 9 0 8 -4 15 -8 15
-4 0 -8 -9 -8 -19 0 -11 4 -17 8 -15 15 10 8 -13 -12 -36 -11 -13 -20 -30 -20
-38 0 -9 -6 -12 -16 -8 -8 3 -13 2 -10 -3 8 -13 -60 -98 -92 -115 -15 -9 -22
-15 -15 -16 8 0 8 -7 0 -29 -6 -17 -14 -28 -19 -25 -4 3 -19 -13 -34 -35 -14
-23 -30 -38 -35 -35 -5 3 -9 1 -9 -4 0 -5 -12 -22 -27 -38 -15 -16 -26 -31
-26 -34 1 -12 -27 -43 -33 -37 -7 6 -37 -28 -40 -45 -1 -5 -2 -11 -3 -15 0 -4
-6 -2 -13 5 -7 7 -16 12 -22 12 -5 0 -1 -6 9 -14 18 -13 18 -14 -4 -45 -12
-17 -26 -31 -31 -31 -5 0 -6 -8 -3 -17 6 -16 5 -17 -12 -3 -10 8 -16 10 -12 4
4 -7 -2 -33 -14 -59 -11 -25 -18 -53 -15 -62 4 -11 2 -13 -9 -9 -10 3 -15 -1
-15 -13 0 -11 -3 -21 -7 -23 -5 -1 -16 -16 -25 -33 -10 -16 -22 -29 -28 -27
-5 1 -10 -2 -10 -8 0 -5 4 -10 9 -10 5 0 7 -9 4 -21 -4 -16 -8 -17 -14 -7 -12
19 -11 0 1 -23 7 -13 7 -19 0 -19 -5 0 -10 -7 -10 -15 0 -8 -5 -15 -10 -15 -6
0 -10 -6 -8 -12 1 -7 -1 -29 -5 -48 -4 -19 -9 -45 -11 -57 -3 -12 -12 -37 -20
-55 -8 -18 -15 -44 -15 -58 -1 -75 -4 -100 -11 -100 -10 0 5 -96 25 -155 22
-68 36 -95 46 -89 5 3 6 -2 3 -11 -8 -20 15 -67 29 -58 6 3 7 1 3 -5 -10 -17
25 -72 46 -72 9 0 20 4 23 10 3 6 -1 7 -9 4 -12 -4 -16 0 -16 16 0 17 4 20 20
15 24 -8 25 3 4 34 -10 13 -18 43 -19 67 -1 38 1 44 19 44 19 0 19 1 2 13 -15
11 -16 18 -8 34 6 11 9 23 5 26 -3 4 0 13 7 22 7 8 10 21 7 29 -3 8 1 20 9 27
12 10 13 9 8 -7 -6 -15 -4 -17 6 -7 10 9 10 15 2 26 -7 8 -9 17 -5 20 9 9 43
-23 43 -40 0 -7 5 -13 10 -13 7 0 7 6 2 18 -5 9 -7 23 -4 31 2 8 1 11 -4 8 -5
-2 -15 1 -22 9 -13 14 -11 16 18 18 8 1 14 6 12 11 -2 6 -10 9 -18 9 -9 -1
-14 5 -11 15 2 9 8 15 15 14 6 -2 9 3 6 11 -3 8 -1 17 5 21 6 3 11 1 11 -4 0
-6 5 -11 10 -11 6 0 8 11 4 26 -5 18 0 32 16 49 13 14 27 22 33 18 6 -3 7 -1
3 6 -10 15 20 61 40 61 9 0 12 -5 8 -11 -4 -7 -1 -10 6 -7 22 7 23 28 2 28
-18 0 -19 3 -9 25 10 20 13 21 18 7 4 -13 7 -11 12 10 10 38 34 44 29 7 -2
-16 -7 -27 -11 -25 -4 3 -7 -3 -8 -12 0 -9 -4 -32 -8 -49 -5 -23 -4 -33 4 -33
7 0 10 4 7 8 -3 5 -1 26 5 46 8 30 14 37 30 33 16 -4 17 -2 8 14 -6 13 -6 25
1 38 7 14 7 22 -2 27 -6 4 -8 3 -5 -3 4 -6 -3 -10 -17 -10 -26 0 -26 21 0 31
8 3 14 12 14 20 0 12 7 14 33 9 l32 -6 -24 20 -25 20 22 23 c12 13 22 30 22
37 0 7 4 13 9 13 9 0 24 38 22 54 -1 4 4 15 11 24 7 8 13 23 13 33 0 10 15 31
33 47 17 16 32 34 32 41 0 8 8 10 23 6 14 -4 18 -3 9 3 -10 7 -10 13 0 34 11
21 16 23 26 11 14 -15 32 -17 32 -4 0 5 -7 14 -15 21 -19 16 -20 44 -1 37 10
-4 13 -1 9 8 -7 20 23 30 42 15 10 -9 15 -9 15 -1 0 6 -4 11 -9 11 -5 0 -11 9
-14 20 -3 13 0 20 10 20 8 0 12 4 9 9 -3 4 3 16 14 26 11 10 20 26 20 37 0 10
11 24 25 30 14 6 25 18 25 25 0 8 4 11 10 8 6 -4 7 1 3 11 -5 13 -3 16 10 11
11 -4 14 -2 10 9 -3 8 5 23 18 34 13 11 29 23 34 28 6 5 28 29 49 53 22 24 36
36 33 27 -3 -9 0 -19 8 -21 19 -8 27 4 14 20 -9 10 -8 18 6 33 10 11 22 17 26
14 5 -3 9 1 9 9 0 15 87 107 101 107 5 0 6 7 3 15 -4 9 0 15 10 15 9 0 16 5
16 11 0 5 4 8 9 5 5 -4 7 4 3 16 -3 13 -1 19 6 15 6 -4 21 9 33 30 35 56 100
125 161 170 21 16 38 34 38 41 0 6 6 12 13 12 6 1 27 13 45 29 l33 28 -73 60
c-56 46 -76 58 -86 49z"/>
<path d="M6900 3363 c0 -14 -2 -15 -9 -4 -11 18 -125 5 -160 -18 -19 -12 -23
-12 -17 -2 7 11 4 13 -15 8 -13 -4 -28 -7 -32 -7 -5 0 -5 -5 -1 -12 4 -7 3 -8
-5 -4 -17 11 -74 -11 -89 -34 -9 -14 -10 -32 -3 -60 5 -25 5 -40 -1 -40 -5 0
-6 -5 -3 -10 4 -6 -6 -24 -21 -40 -18 -18 -31 -25 -35 -19 -5 8 -9 8 -13 0 -4
-6 -2 -11 4 -11 6 0 8 -5 4 -12 -5 -8 0 -7 11 2 13 10 19 11 22 4 2 -7 14 -10
26 -8 19 4 19 3 -3 -7 -14 -7 -32 -11 -40 -10 -8 1 -4 -6 9 -15 17 -13 26 -14
29 -6 2 7 10 12 18 12 11 0 10 -4 -3 -18 -10 -10 -24 -17 -30 -14 -7 2 -13 -1
-13 -7 0 -6 5 -11 12 -11 6 0 3 -10 -8 -22 -10 -13 -12 -17 -4 -10 21 18 30
15 30 -13 0 -13 9 -39 19 -56 11 -17 17 -38 14 -45 -3 -9 2 -14 12 -14 9 0 13
-5 10 -10 -9 -15 58 -76 89 -82 14 -3 26 -2 26 1 0 3 13 6 29 7 33 1 101 58
101 86 0 10 4 18 9 18 5 0 14 14 20 30 5 17 14 30 19 30 5 0 13 10 17 23 4 12
8 24 9 27 2 3 6 19 11 35 4 17 11 35 15 40 8 12 28 85 35 134 3 19 8 38 11 43
9 14 22 112 17 125 -3 9 -25 13 -64 13 -49 0 -59 -3 -59 -17z"/>
</g>
</svg>
